<mxfile host="65bd71144e">
    <diagram id="IYLOU3CK_ivfJfWM9qrF" name="Page-1">
        <mxGraphModel dx="1678" dy="1466" grid="1" gridSize="10" guides="1" tooltips="1" connect="1" arrows="1" fold="1" page="1" pageScale="1" pageWidth="850" pageHeight="1100" math="0" shadow="0">
            <root>
                <mxCell id="0"/>
                <mxCell id="1" parent="0"/>
                <mxCell id="18" value="" style="rounded=1;whiteSpace=wrap;html=1;fontSize=14;fillColor=#000000;" parent="1" vertex="1">
                    <mxGeometry x="-470" y="50" width="960" height="1060" as="geometry"/>
                </mxCell>
                <mxCell id="2" value="" style="aspect=fixed;perimeter=ellipsePerimeter;html=1;align=center;shadow=0;dashed=0;spacingTop=3;image;image=img/lib/active_directory/internet_cloud.svg;" parent="1" vertex="1">
                    <mxGeometry x="-384" y="110.35" width="110" height="69.3" as="geometry"/>
                </mxCell>
                <mxCell id="6" value="&lt;font color=&quot;#00ff00&quot;&gt;Main driver&lt;br&gt;Laptop&lt;/font&gt;" style="shape=ext;double=1;whiteSpace=wrap;html=1;aspect=fixed;strokeColor=#00FF00;" parent="1" vertex="1">
                    <mxGeometry x="-299" y="783" width="110" height="110" as="geometry"/>
                </mxCell>
                <mxCell id="7" value="&lt;b style=&quot;font-size: 12px;&quot;&gt;&lt;font color=&quot;#000000&quot; style=&quot;font-size: 16px;&quot;&gt;ISP&lt;/font&gt;&lt;/b&gt;" style="text;html=1;align=center;verticalAlign=middle;resizable=0;points=[];autosize=1;strokeColor=none;fillColor=none;fontSize=16;" parent="1" vertex="1">
                    <mxGeometry x="-348.88" y="130" width="50" height="30" as="geometry"/>
                </mxCell>
                <mxCell id="10" value="" style="shape=flexArrow;endArrow=classic;html=1;strokeColor=#66FFFF;fontSize=16;fontColor=#FF8000;entryX=1;entryY=0.5;entryDx=0;entryDy=0;" parent="1" target="6" edge="1">
                    <mxGeometry width="50" height="50" relative="1" as="geometry">
                        <mxPoint x="-29" y="733" as="sourcePoint"/>
                        <mxPoint x="-229" y="668" as="targetPoint"/>
                    </mxGeometry>
                </mxCell>
                <mxCell id="22" value="&lt;font color=&quot;#00ff00&quot;&gt;Deleted Windows 10&amp;nbsp;&lt;br&gt;&lt;br&gt;Currently runs Debian via USB&lt;br&gt;&lt;/font&gt;" style="shape=ext;double=1;whiteSpace=wrap;html=1;aspect=fixed;strokeColor=#00FF00;" parent="1" vertex="1">
                    <mxGeometry x="-299" y="673" width="110" height="110" as="geometry"/>
                </mxCell>
                <mxCell id="23" value="" style="shape=flexArrow;endArrow=classic;html=1;strokeColor=#66FFFF;fontSize=16;fontColor=#FF8000;entryX=1;entryY=0.5;entryDx=0;entryDy=0;exitX=0;exitY=0.5;exitDx=0;exitDy=0;" parent="1" target="22" edge="1">
                    <mxGeometry width="50" height="50" relative="1" as="geometry">
                        <mxPoint x="-34.11999999999989" y="723" as="sourcePoint"/>
                        <mxPoint x="-229" y="793" as="targetPoint"/>
                    </mxGeometry>
                </mxCell>
                <mxCell id="28" value="" style="endArrow=classic;html=1;fillColor=#0050ef;strokeColor=#FFFFFF;entryX=1;entryY=0.601;entryDx=0;entryDy=0;entryPerimeter=0;" parent="1" source="59" target="2" edge="1">
                    <mxGeometry width="50" height="50" relative="1" as="geometry">
                        <mxPoint x="4.880000000000109" y="170" as="sourcePoint"/>
                        <mxPoint x="19.789163966299274" y="210" as="targetPoint"/>
                    </mxGeometry>
                </mxCell>
                <mxCell id="33" value="" style="endArrow=none;dashed=1;html=1;strokeColor=#FFFFFF;fontSize=14;fontColor=#FFFFFF;" parent="1" edge="1">
                    <mxGeometry width="50" height="50" relative="1" as="geometry">
                        <mxPoint x="45.88" y="718" as="sourcePoint"/>
                        <mxPoint x="96" y="663" as="targetPoint"/>
                    </mxGeometry>
                </mxCell>
                <mxCell id="34" value="" style="endArrow=none;dashed=1;html=1;strokeColor=#FFFFFF;fontSize=14;fontColor=#FFFFFF;exitX=1;exitY=0.5;exitDx=0;exitDy=0;entryX=0.187;entryY=0.577;entryDx=0;entryDy=0;entryPerimeter=0;" parent="1" target="36" edge="1">
                    <mxGeometry width="50" height="50" relative="1" as="geometry">
                        <mxPoint x="45.88000000000011" y="723" as="sourcePoint"/>
                        <mxPoint x="106" y="673" as="targetPoint"/>
                    </mxGeometry>
                </mxCell>
                <mxCell id="35" value="" style="endArrow=none;dashed=1;html=1;strokeColor=#FFFFFF;fontSize=14;fontColor=#FFFFFF;exitX=1;exitY=0.5;exitDx=0;exitDy=0;" parent="1" edge="1">
                    <mxGeometry width="50" height="50" relative="1" as="geometry">
                        <mxPoint x="45.88000000000011" y="723" as="sourcePoint"/>
                        <mxPoint x="81" y="703" as="targetPoint"/>
                    </mxGeometry>
                </mxCell>
                <mxCell id="36" value="Master&lt;br&gt;2nd Room&lt;br&gt;Living Room" style="text;html=1;align=center;verticalAlign=middle;resizable=0;points=[];autosize=1;strokeColor=none;fillColor=none;fontSize=14;fontColor=#FFFFFF;rotation=-10;" parent="1" vertex="1">
                    <mxGeometry x="71" y="643" width="100" height="60" as="geometry"/>
                </mxCell>
                <mxCell id="46" value="" style="shape=partialRectangle;whiteSpace=wrap;html=1;bottom=1;right=1;left=1;top=0;fillColor=none;routingCenterX=-0.5;labelBackgroundColor=#000000;fontSize=14;fontColor=#FFFFFF;rotation=90;" parent="1" vertex="1">
                    <mxGeometry x="-389" y="748.35" width="120" height="60" as="geometry"/>
                </mxCell>
                <mxCell id="53" value="Kali VM&lt;br&gt;Windows 11 VM" style="html=1;whiteSpace=wrap;aspect=fixed;shape=isoRectangle;labelBackgroundColor=#000000;fontSize=14;fontColor=#FFFFFF;" parent="1" vertex="1">
                    <mxGeometry x="-322.34" y="953" width="156.67" height="94" as="geometry"/>
                </mxCell>
                <mxCell id="54" value="" style="endArrow=none;dashed=1;html=1;strokeColor=#FFFFFF;fontSize=14;fontColor=#FFFFFF;entryX=0.523;entryY=0.053;entryDx=0;entryDy=0;entryPerimeter=0;" parent="1" target="53" edge="1">
                    <mxGeometry width="50" height="50" relative="1" as="geometry">
                        <mxPoint x="-239" y="893" as="sourcePoint"/>
                        <mxPoint x="106" y="673" as="targetPoint"/>
                    </mxGeometry>
                </mxCell>
                <mxCell id="59" value="&lt;b&gt;&lt;font style=&quot;font-size: 14px;&quot; color=&quot;#ffffff&quot;&gt;ROUTER&lt;/font&gt;&lt;/b&gt;" style="sketch=0;outlineConnect=0;fontColor=#232F3E;gradientColor=none;fillColor=#4D27AA;strokeColor=none;dashed=0;verticalLabelPosition=bottom;verticalAlign=top;align=center;html=1;fontSize=12;fontStyle=0;aspect=fixed;pointerEvents=1;shape=mxgraph.aws4.router;" parent="1" vertex="1">
                    <mxGeometry x="-170" y="113.35" width="78" height="78" as="geometry"/>
                </mxCell>
                <mxCell id="60" value="&lt;b&gt;UniFi Lite-8-PoE Switch&lt;/b&gt;" style="sketch=0;points=[[0.015,0.015,0],[0.985,0.015,0],[0.985,0.985,0],[0.015,0.985,0],[0.25,0,0],[0.5,0,0],[0.75,0,0],[1,0.25,0],[1,0.5,0],[1,0.75,0],[0.75,1,0],[0.5,1,0],[0.25,1,0],[0,0.75,0],[0,0.5,0],[0,0.25,0]];verticalLabelPosition=bottom;html=1;verticalAlign=top;aspect=fixed;align=center;pointerEvents=1;shape=mxgraph.cisco19.rect;prIcon=l2_switch;fillColor=#FAFAFA;strokeColor=#005073;fontSize=14;fontColor=#FFFFFF;" parent="1" vertex="1">
                    <mxGeometry x="-4.120000000000003" y="127" width="50" height="50" as="geometry"/>
                </mxCell>
                <mxCell id="61" value="" style="endArrow=classic;html=1;fillColor=#0050ef;strokeColor=#FFFFFF;exitX=0;exitY=0.5;exitDx=0;exitDy=0;exitPerimeter=0;" parent="1" source="60" target="59" edge="1">
                    <mxGeometry width="50" height="50" relative="1" as="geometry">
                        <mxPoint x="12" y="154.7543545454546" as="sourcePoint"/>
                        <mxPoint x="-92" y="154.49930000000006" as="targetPoint"/>
                    </mxGeometry>
                </mxCell>
                <mxCell id="62" value="&lt;font color=&quot;#ffffff&quot;&gt;&lt;span style=&quot;font-size: 14px;&quot;&gt;&lt;b&gt;Raspberry Pi5&lt;br&gt;Docker Containers&lt;br&gt;&lt;/b&gt;&lt;/span&gt;&lt;/font&gt;D" style="sketch=0;outlineConnect=0;fontColor=#232F3E;gradientColor=none;strokeColor=#232F3E;fillColor=#ffffff;dashed=0;verticalLabelPosition=bottom;verticalAlign=top;align=center;html=1;fontSize=12;fontStyle=0;aspect=fixed;shape=mxgraph.aws4.resourceIcon;resIcon=mxgraph.aws4.traditional_server;" parent="1" vertex="1">
                    <mxGeometry x="-140" y="300" width="60" height="60" as="geometry"/>
                </mxCell>
                <mxCell id="63" value="&lt;b&gt;&lt;font style=&quot;font-size: 14px;&quot;&gt;Pi-Hole&lt;/font&gt;&lt;/b&gt;" style="sketch=0;aspect=fixed;html=1;points=[];align=center;image;fontSize=12;image=img/lib/mscae/Docker.svg;fontColor=#FFFFFF;" parent="1" vertex="1">
                    <mxGeometry x="-298.88" y="259" width="50" height="41" as="geometry"/>
                </mxCell>
                <mxCell id="68" value="&lt;b&gt;UniFi WAP&lt;/b&gt;" style="points=[[0.03,0.36,0],[0.18,0,0],[0.5,0.34,0],[0.82,0,0],[0.97,0.36,0],[1,0.67,0],[0.975,0.975,0],[0.5,1,0],[0.025,0.975,0],[0,0.67,0]];verticalLabelPosition=bottom;sketch=0;html=1;verticalAlign=top;aspect=fixed;align=center;pointerEvents=1;shape=mxgraph.cisco19.wireless_access_point;fillColor=#005073;strokeColor=none;fontSize=14;fontColor=#FFFFFF;" parent="1" vertex="1">
                    <mxGeometry x="190" y="310" width="50" height="50" as="geometry"/>
                </mxCell>
                <mxCell id="69" value="&lt;b&gt;&lt;font style=&quot;font-size: 14px;&quot;&gt;UniFi Controller&lt;/font&gt;&lt;/b&gt;" style="sketch=0;aspect=fixed;html=1;points=[];align=center;image;fontSize=12;image=img/lib/mscae/Docker.svg;fontColor=#FFFFFF;" parent="1" vertex="1">
                    <mxGeometry x="-298.88" y="350" width="50" height="41" as="geometry"/>
                </mxCell>
                <mxCell id="70" value="" style="endArrow=classic;html=1;fillColor=#0050ef;strokeColor=#FFFFFF;entryX=0.978;entryY=0.878;entryDx=0;entryDy=0;entryPerimeter=0;" parent="1" source="62" target="63" edge="1">
                    <mxGeometry width="50" height="50" relative="1" as="geometry">
                        <mxPoint x="-144.88" y="310.2543545454546" as="sourcePoint"/>
                        <mxPoint x="-248.88" y="309.99930000000006" as="targetPoint"/>
                    </mxGeometry>
                </mxCell>
                <mxCell id="71" value="" style="endArrow=classic;html=1;fillColor=#0050ef;strokeColor=#FFFFFF;entryX=1.018;entryY=0.366;entryDx=0;entryDy=0;entryPerimeter=0;" parent="1" target="69" edge="1">
                    <mxGeometry width="50" height="50" relative="1" as="geometry">
                        <mxPoint x="-130" y="332.49849978568363" as="sourcePoint"/>
                        <mxPoint x="-239.98000000000002" y="304.99800000000005" as="targetPoint"/>
                    </mxGeometry>
                </mxCell>
                <mxCell id="72" value="" style="endArrow=classic;html=1;fillColor=#0050ef;strokeColor=#FFFFFF;entryX=0.5;entryY=1;entryDx=0;entryDy=0;entryPerimeter=0;" parent="1" source="62" target="60" edge="1">
                    <mxGeometry width="50" height="50" relative="1" as="geometry">
                        <mxPoint x="14" y="259.2543545454546" as="sourcePoint"/>
                        <mxPoint x="-90" y="258.99930000000006" as="targetPoint"/>
                    </mxGeometry>
                </mxCell>
                <mxCell id="73" value="" style="endArrow=classic;html=1;fillColor=#0050ef;strokeColor=#FFFFFF;entryX=0.75;entryY=1;entryDx=0;entryDy=0;entryPerimeter=0;exitX=0.82;exitY=0;exitDx=0;exitDy=0;exitPerimeter=0;" parent="1" source="68" target="60" edge="1">
                    <mxGeometry width="50" height="50" relative="1" as="geometry">
                        <mxPoint x="99.88" y="250.2543545454546" as="sourcePoint"/>
                        <mxPoint x="-4.1200000000000045" y="249.99930000000006" as="targetPoint"/>
                    </mxGeometry>
                </mxCell>
                <mxCell id="74" value="" style="sketch=0;points=[[0.015,0.015,0],[0.985,0.015,0],[0.985,0.985,0],[0.015,0.985,0],[0.25,0,0],[0.5,0,0],[0.75,0,0],[1,0.25,0],[1,0.5,0],[1,0.75,0],[0.75,1,0],[0.5,1,0],[0.25,1,0],[0,0.75,0],[0,0.5,0],[0,0.25,0]];verticalLabelPosition=bottom;html=1;verticalAlign=top;aspect=fixed;align=center;pointerEvents=1;shape=mxgraph.cisco19.rect;prIcon=l2_switch;fillColor=#FAFAFA;strokeColor=#005073;fontSize=14;fontColor=#FFFFFF;" parent="1" vertex="1">
                    <mxGeometry x="-14.999999999999996" y="698" width="50" height="50" as="geometry"/>
                </mxCell>
                <mxCell id="75" value="" style="endArrow=none;dashed=1;html=1;strokeColor=#FFFFFF;fontSize=14;fontColor=#FFFFFF;entryX=0.75;entryY=1;entryDx=0;entryDy=0;entryPerimeter=0;exitX=0.5;exitY=0;exitDx=0;exitDy=0;exitPerimeter=0;" parent="1" source="74" target="60" edge="1">
                    <mxGeometry width="50" height="50" relative="1" as="geometry">
                        <mxPoint x="50" y="480" as="sourcePoint"/>
                        <mxPoint x="106" y="673" as="targetPoint"/>
                    </mxGeometry>
                </mxCell>
                <mxCell id="87" value="Main:&lt;br&gt;&lt;font color=&quot;#ffffff&quot;&gt;192.168.21.0/24&lt;/font&gt;" style="text;html=1;align=center;verticalAlign=middle;resizable=0;points=[];autosize=1;strokeColor=none;fillColor=none;fontSize=14;fontColor=#CC0066;" parent="1" vertex="1">
                    <mxGeometry x="-180" y="-480.5" width="120" height="50" as="geometry"/>
                </mxCell>
                <mxCell id="88" value="Roomate:&lt;br&gt;&lt;font color=&quot;#ffffff&quot;&gt;192.168.22.0/24&lt;/font&gt;" style="text;html=1;align=center;verticalAlign=middle;resizable=0;points=[];autosize=1;strokeColor=none;fillColor=none;fontSize=14;fontColor=#CC0066;" parent="1" vertex="1">
                    <mxGeometry x="-180" y="-400.5" width="120" height="50" as="geometry"/>
                </mxCell>
                <mxCell id="89" value="IoT:&lt;br&gt;&lt;font color=&quot;#ffffff&quot;&gt;192.168.23.0/24&lt;/font&gt;" style="text;html=1;align=center;verticalAlign=middle;resizable=0;points=[];autosize=1;strokeColor=none;fillColor=none;fontSize=14;fontColor=#CC0066;" parent="1" vertex="1">
                    <mxGeometry x="-180" y="-325.5" width="120" height="50" as="geometry"/>
                </mxCell>
                <mxCell id="90" value="Guest:&lt;br&gt;&lt;font color=&quot;#ffffff&quot;&gt;192.168.24.0/24&lt;/font&gt;" style="text;html=1;align=center;verticalAlign=middle;resizable=0;points=[];autosize=1;strokeColor=none;fillColor=none;fontSize=14;fontColor=#CC0066;" parent="1" vertex="1">
                    <mxGeometry x="-180" y="-245.5" width="120" height="50" as="geometry"/>
                </mxCell>
                <mxCell id="91" value="VLAN 99: ISOLATED&lt;br&gt;&lt;font color=&quot;#ffffff&quot;&gt;10.0.99.0/24&lt;/font&gt;" style="text;html=1;align=center;verticalAlign=middle;resizable=0;points=[];autosize=1;strokeColor=none;fillColor=none;fontSize=14;fontColor=#CC0066;" parent="1" vertex="1">
                    <mxGeometry x="130" y="-198" width="160" height="50" as="geometry"/>
                </mxCell>
                <mxCell id="92" value="VLAN 50: Cyber&lt;br&gt;&lt;font color=&quot;#ffffff&quot;&gt;10.0.50.0/24&lt;/font&gt;" style="text;html=1;align=center;verticalAlign=middle;resizable=0;points=[];autosize=1;strokeColor=none;fillColor=none;fontSize=14;fontColor=#CC0066;" parent="1" vertex="1">
                    <mxGeometry x="150" y="-263" width="120" height="50" as="geometry"/>
                </mxCell>
                <mxCell id="93" value="VLAN 10: Fake Wan&lt;br&gt;&lt;font color=&quot;#ffffff&quot;&gt;10.0.10.0/24&lt;/font&gt;" style="text;html=1;align=center;verticalAlign=middle;resizable=0;points=[];autosize=1;strokeColor=none;fillColor=none;fontSize=14;fontColor=#CC0066;" parent="1" vertex="1">
                    <mxGeometry x="135" y="-400.5" width="150" height="50" as="geometry"/>
                </mxCell>
                <mxCell id="94" value="VLAN 1: Management&lt;br&gt;&lt;font color=&quot;#ffffff&quot;&gt;10.0.1.0/24&lt;/font&gt;" style="text;html=1;align=center;verticalAlign=middle;resizable=0;points=[];autosize=1;strokeColor=none;fillColor=none;fontSize=14;fontColor=#CC0066;" parent="1" vertex="1">
                    <mxGeometry x="130" y="-480.5" width="160" height="50" as="geometry"/>
                </mxCell>
                <mxCell id="95" value="VLAN 20: Work Lan&lt;br&gt;&lt;font color=&quot;#ffffff&quot;&gt;10.0.50.0/24&lt;/font&gt;" style="text;html=1;align=center;verticalAlign=middle;resizable=0;points=[];autosize=1;strokeColor=none;fillColor=none;fontSize=14;fontColor=#CC0066;" parent="1" vertex="1">
                    <mxGeometry x="135" y="-326" width="150" height="50" as="geometry"/>
                </mxCell>
            </root>
        </mxGraphModel>
    </diagram>
</mxfile>